<svg width="512" height="512" viewBox="0 0 512 512" fill="none" xmlns="http://www.w3.org/2000/svg">
<path d="M90 316V376C90 384.398 83.4023 391 75 391C66.5977 391 60 384.398 60 376V316C60 307.598 66.5977 301 75 301C83.4023 301 90 307.598 90 316Z" fill="#575F64"/>
<path d="M90 316V376C90 384.398 83.4023 391 75 391V301C83.4023 301 90 307.598 90 316Z" fill="#32393F"/>
<path d="M90 135V196C90 204.398 83.4023 211 75 211C66.5977 211 60 204.398 60 196V135C60 126.598 66.5977 120 75 120C83.4023 120 90 126.598 90 135Z" fill="#575F64"/>
<path d="M90 135V196C90 204.398 83.4023 211 75 211V120C83.4023 120 90 126.598 90 135Z" fill="#32393F"/>
<path d="M141.598 212.5L81.5977 182.5C79.5 181.598 77.3984 181 75 181C72.6016 181 70.5 181.598 68.4023 182.5L8.40234 212.5C3.30078 215.199 0 220.301 0 226V286C0 291.699 3.30078 296.801 8.40234 299.5L68.4023 329.5C70.5 330.398 72.6016 331 75 331C77.3984 331 79.5 330.398 81.5977 329.5L141.598 299.5C146.699 296.801 150 291.699 150 286V226C150 220.301 146.699 215.199 141.598 212.5Z" fill="#A69989"/>
<path d="M150 226V286C150 291.699 146.699 296.801 141.598 299.5L81.5977 329.5C79.5 330.398 77.3984 331 75 331V181C77.4023 181 79.5 181.598 81.5977 182.5L141.598 212.5C146.699 215.199 150 220.301 150 226Z" fill="#827979"/>
<path d="M141.598 31.5L81.5977 1.5C79.5 0.597656 77.4023 0 75 0C72.5977 0 70.5 0.597656 68.4023 1.5L8.40234 31.5C3.30078 34.1992 0 39.3008 0 45V105C0 110.699 3.30078 115.801 8.40234 118.5L68.4023 148.5C70.5 149.398 72.6016 150 75 150C77.3984 150 79.5 149.398 81.5977 148.5L141.598 118.5C146.699 115.801 150 110.699 150 105V45C150 39.3008 146.699 34.1992 141.598 31.5Z" fill="#A69989"/>
<path d="M150 45V105C150 110.699 146.699 115.801 141.598 118.5L81.5977 148.5C79.5 149.398 77.3984 150 75 150V0C77.4023 0 79.5 0.597656 81.5977 1.5L141.598 31.5C146.699 34.1992 150 39.3008 150 45Z" fill="#827979"/>
<path d="M141.598 392.5L81.5977 362.5C79.5 361.598 77.3984 361 75 361C72.6016 361 70.5 361.598 68.4023 362.5L8.40234 392.5C3.30078 395.199 0 400.301 0 406V467C0 472.699 3.30078 477.801 8.40234 480.5L68.4023 510.5C70.5 511.398 72.6016 512 75 512C77.3984 512 79.5 511.398 81.5977 510.5L141.598 480.5C146.699 477.801 150 472.699 150 467V406C150 400.301 146.699 395.199 141.598 392.5Z" fill="#A69989"/>
<path d="M150 406V467C150 472.699 146.699 477.801 141.598 480.5L81.5977 510.5C79.5 511.398 77.3984 512 75 512V361C77.4023 361 79.5 361.598 81.5977 362.5L141.598 392.5C146.699 395.199 150 400.301 150 406Z" fill="#827979"/>
<path d="M497 60H195C186.711 60 180 53.2891 180 45C180 36.7109 186.711 30 195 30H497C505.289 30 512 36.7109 512 45C512 53.2891 505.289 60 497 60Z" fill="#039FCE"/>
<path d="M346 120H195C186.711 120 180 113.289 180 105C180 96.7109 186.711 90 195 90H346C354.289 90 361 96.7109 361 105C361 113.289 354.289 120 346 120Z" fill="#039FCE"/>
<path d="M346 301H195C186.711 301 180 294.289 180 286C180 277.711 186.711 271 195 271H346C354.289 271 361 277.711 361 286C361 294.289 354.289 301 346 301Z" fill="#039FCE"/>
<path d="M346 481H195C186.711 481 180 474.289 180 466C180 457.711 186.711 451 195 451H346C354.289 451 361 457.711 361 466C361 474.289 354.289 481 346 481Z" fill="#039FCE"/>
<path d="M497 241H195C186.711 241 180 234.289 180 226C180 217.711 186.711 211 195 211H497C505.289 211 512 217.711 512 226C512 234.289 505.289 241 497 241Z" fill="#039FCE"/>
<path d="M497 421H195C186.711 421 180 414.289 180 406C180 397.711 186.711 391 195 391H497C505.289 391 512 397.711 512 406C512 414.289 505.289 421 497 421Z" fill="#039FCE"/>
<path d="M90 75C90 83.3984 83.4023 90 75 90C66.5977 90 60 83.3984 60 75C60 66.5977 66.5977 60 75 60C83.4023 60 90 66.5977 90 75Z" fill="#575F64"/>
<path d="M90 256C90 264.398 83.4023 271 75 271C66.5977 271 60 264.398 60 256C60 247.598 66.5977 241 75 241C83.4023 241 90 247.598 90 256Z" fill="#575F64"/>
<path d="M90 436C90 444.398 83.4023 451 75 451C66.5977 451 60 444.398 60 436C60 427.598 66.5977 421 75 421C83.4023 421 90 427.598 90 436Z" fill="#575F64"/>
<path d="M90 436C90 444.398 83.4023 451 75 451V421C83.4023 421 90 427.598 90 436Z" fill="#32393F"/>
<path d="M90 256C90 264.398 83.4023 271 75 271V241C83.4023 241 90 247.598 90 256Z" fill="#32393F"/>
<path d="M75 90V60C83.4023 60 90 66.5977 90 75C90 83.3984 83.4023 90 75 90Z" fill="#32393F"/>
</svg>
